<?xml version="1.0" encoding="utf-8"?>
<!-- Generator: Adobe Illustrator 22.1.0, SVG Export Plug-In . SVG Version: 6.00 Build 0)  -->
<svg version="1.1" id="Ebene_1" xmlns="http://www.w3.org/2000/svg" xmlns:xlink="http://www.w3.org/1999/xlink" x="0px" y="0px"
	 viewBox="0 0 150 84.7" style="enable-background:new 0 0 150 84.7;" xml:space="preserve">
<style type="text/css">
	.st0{opacity:0.2;}
	.st1{fill:#C80927;}
	.st2{fill:#FFFFFF;}
	.st3{fill:#C81529;}
</style>
<title>vdh-logo</title>
<g id="Ebene_2_1_">
	<g id="Ebene_1-2">
		<polygon class="st0" points="3.2,43.2 75.2,3.3 148,43.2 75.1,83.7 		"/>
		<polygon class="st1" points="1.2,41.2 73.2,1.2 146,41.2 73.1,81.7 		"/>
		<polygon class="st2" points="7.8,41.2 68,7.2 129,41.2 67.9,75.1 		"/>
		<polygon class="st1" points="46.2,52.5 52.3,52.5 59.4,28.8 54.2,28.8 49.3,45.8 49.2,45.8 44.3,28.8 39,28.8 		"/>
		<path class="st1" d="M60.7,52.5h7.5c6.2,0,9.6-2.2,9.8-8.2V37c-0.2-6-3.7-8.2-9.8-8.2h-7.5V52.5z M66,32.8h1.9
			c3.3,0,4.7,1.4,4.7,4.7v6.3c0,3.6-1.7,4.7-4.7,4.7H66C66,48.5,66,32.8,66,32.8z"/>
		<polygon class="st3" points="86.2,52.5 86.2,42.3 93.8,42.3 93.8,52.5 99.2,52.5 99.2,28.8 93.8,28.8 93.8,38.2 86.2,38.2 
			86.2,28.8 80.8,28.8 80.8,52.5 		"/>
	</g>
</g>
</svg>
